HIERARCHY
ROOT Hips
{
	OFFSET 0.000000 0.000000 0.000000
	CHANNELS 6 Xposition Yposition Zposition Zrotation Yrotation Xrotation 
	JOINT LeftUpLeg_virtual
	{
		OFFSET 0.000000 0.000000 0.000000
		CHANNELS 3 Zrotation Yrotation Xrotation
		JOINT LeftUpLeg
		{
			OFFSET 10.205400 -3.823500 0.155100
			CHANNELS 3 Zrotation Yrotation Xrotation
			JOINT LeftLeg
			{
				OFFSET 0.708757 -12.982077 0.567790
				CHANNELS 3 Zrotation Yrotation Xrotation
				JOINT LeftFoot
				{
					OFFSET -0.708756 -10.717838 -2.184338
					CHANNELS 3 Zrotation Yrotation Xrotation
					JOINT LeftToeBase
					{
						OFFSET 0.108149 -7.191104 7.560241
						CHANNELS 3 Zrotation Yrotation Xrotation
						End Site
						{
							OFFSET 0.000000 0.000000 0.000000
						}
					}
				}
			}
		}
	}
	JOINT RightUpLeg_virtual
	{
		OFFSET 0.000000 0.000000 0.000000
		CHANNELS 3 Zrotation Yrotation Xrotation
		JOINT RightUpLeg
		{
			OFFSET -10.205400 -3.823500 0.005500
			CHANNELS 3 Zrotation Yrotation Xrotation
			JOINT RightLeg
			{
				OFFSET -0.708756 -12.982134 0.610632
				CHANNELS 3 Zrotation Yrotation Xrotation
				JOINT RightFoot
				{
					OFFSET 0.708754 -10.717769 -1.945823
					CHANNELS 3 Zrotation Yrotation Xrotation
					JOINT RightToeBase
					{
						OFFSET -0.108140 -7.191069 7.372968
						CHANNELS 3 Zrotation Yrotation Xrotation
						End Site
						{
							OFFSET 0.000000 0.000000 0.000000
						}
					}
				}
			}
		}
	}
	JOINT Spine_virtual
	{
		OFFSET 0.000000 0.000000 0.000000
		CHANNELS 3 Zrotation Yrotation Xrotation
		JOINT Spine
		{
			OFFSET 0.000000 6.876099 0.125700
			CHANNELS 3 Zrotation Yrotation Xrotation
			JOINT Spine1
			{
				OFFSET 0.000000 8.022060 0.146608
				CHANNELS 3 Zrotation Yrotation Xrotation
				JOINT Spine2
				{
					OFFSET 0.000000 9.168068 0.167552
					CHANNELS 3 Zrotation Yrotation Xrotation
					JOINT Neck_virtual
					{
						OFFSET 0.000000 0.000000 0.000000
						CHANNELS 3 Zrotation Yrotation Xrotation
						JOINT Neck
						{
							OFFSET 0.000000 10.314075 0.188496
							CHANNELS 3 Zrotation Yrotation Xrotation
							JOINT Head
							{
								OFFSET 0.000000 7.643700 -2.377400
								CHANNELS 3 Zrotation Yrotation Xrotation
								End Site
								{
									OFFSET 0.000000 0.000000 0.000000
								}
							}
						}
					}
					JOINT LeftShoulder_virtual
					{
						OFFSET 0.000000 0.000000 0.000000
						CHANNELS 3 Zrotation Yrotation Xrotation
						JOINT LeftShoulder
						{
							OFFSET 4.392200 8.824978 0.174984
							CHANNELS 3 Zrotation Yrotation Xrotation
							JOINT LeftArm
							{
								OFFSET 8.771219 -2.981674 -0.026999
								CHANNELS 3 Zrotation Yrotation Xrotation
								JOINT LeftForeArm
								{
									OFFSET 8.512804 0.000000 -0.000000
									CHANNELS 3 Zrotation Yrotation Xrotation
									JOINT LeftHand
									{
										OFFSET 18.484802 0.000000 -0.000000
										CHANNELS 3 Zrotation Yrotation Xrotation
										End Site
										{
											OFFSET 0.000000 0.000000 0.000000
										}
									}
								}
							}
						}
					}
					JOINT RightShoulder_virtual
					{
						OFFSET 0.000000 0.000000 0.000000
						CHANNELS 3 Zrotation Yrotation Xrotation
						JOINT RightShoulder
						{
							OFFSET -4.392200 8.824993 0.141379
							CHANNELS 3 Zrotation Yrotation Xrotation
							JOINT RightArm
							{
								OFFSET -8.771282 -2.981682 -0.094208
								CHANNELS 3 Zrotation Yrotation Xrotation
								JOINT RightForeArm
								{
									OFFSET -8.494598 0.000000 0.000000
									CHANNELS 3 Zrotation Yrotation Xrotation
									JOINT RightHand
									{
										OFFSET -18.483803 0.000000 0.000001
										CHANNELS 3 Zrotation Yrotation Xrotation
										End Site
										{
											OFFSET 0.000000 0.000000 0.000000
										}
									}
								}
							}
						}
					}
				}
			}
		}
	}
}
MOTION
Frames: 5
Frame Time: 0.033333
1.746351 36.130959 -59.787067 0.013655 -71.065086 -0.272505 0.310410 -3.126852 11.302372 -15.514018 -7.179150 -5.527692 9.910974 2.438642 34.014800 -6.409026 -10.444439 7.966012 0.000000 0.000000 0.000000 2.882358 -3.123198 10.431476 -9.237078 15.149221 -34.548685 -5.393201 10.515765 22.656740 18.092978 6.301150 24.693634 0.000000 0.000000 0.000000 1.864956 0.031043 -3.280024 7.850345 3.568014 -11.938023 -1.849304 -4.244219 9.342256 0.057813 -0.140364 -0.011483 -1.711180 -2.742313 11.318004 -4.630261 -3.067574 24.754815 0.000000 0.000000 0.000000 0.245060 -2.632931 7.916434 -2.631268 -9.302527 3.114976 -51.415642 -2.263371 57.541858 -167.374373 -82.896818 -170.896934 0.000000 0.000000 0.000000 -4.705666 -0.611838 6.618257 29.373024 19.130264 4.748169 62.925754 14.804476 25.526375 -170.444079 60.996485 -172.628359 0.000000 0.000000 0.000000 
1.027009 36.237049 -59.907326 -0.084433 -68.615227 0.004576 0.174375 -3.961310 11.571233 -14.083444 -5.839412 -7.368534 8.698545 1.208075 39.282242 -8.427083 -10.761731 10.476830 0.000000 0.000000 0.000000 2.905312 -2.614435 10.391460 -7.973174 14.239146 -32.064163 -4.913272 10.263839 23.546635 16.675419 5.721819 22.569078 0.000000 0.000000 0.000000 1.985521 0.225502 -3.309992 8.534337 3.290423 -12.178376 -1.749671 -4.258619 9.374625 -0.004606 -0.013939 0.000562 -1.639891 -2.856138 11.280065 -4.620958 -3.019585 24.512217 0.000000 0.000000 0.000000 0.398525 -2.689845 7.832911 -2.493718 -9.593794 3.180999 -50.783170 -3.637805 59.055523 -165.149234 -83.262793 -173.446753 0.000000 0.000000 0.000000 -4.649788 -0.729122 6.629480 30.131752 19.457059 4.883876 62.507187 15.100215 24.386502 -170.594725 60.610484 -172.973380 0.000000 0.000000 0.000000 
0.368586 36.312489 -59.970306 -0.292848 -66.095044 0.220212 0.148108 -4.150791 11.606855 -11.532897 -3.489344 -10.388894 7.198157 -0.057275 45.735609 -10.159655 -11.008738 14.080215 0.000000 0.000000 0.000000 2.977607 -2.366410 10.403610 -6.572156 12.878322 -29.438453 -4.709929 9.209171 24.189296 15.053185 4.902732 19.809548 0.000000 0.000000 0.000000 2.122892 0.296989 -3.316075 9.085296 2.955657 -12.239787 -1.645158 -4.344368 9.423307 -0.076336 0.034760 -0.000355 -1.603472 -3.097463 11.236144 -4.580252 -2.976186 24.351424 0.000000 0.000000 0.000000 0.530314 -2.765617 7.749763 -2.386126 -9.838265 3.221391 -50.237414 -4.888812 60.349543 -162.966019 -83.617976 -175.879065 0.000000 0.000000 0.000000 -4.553187 -0.824567 6.575890 30.848041 19.671841 5.082107 62.279652 15.182988 23.621945 -170.823386 60.304341 -173.347332 0.000000 0.000000 0.000000 
-0.246870 36.352535 -59.985409 -0.140893 -63.592271 -0.019111 0.285140 -4.105603 11.605181 -8.613654 -1.083464 -14.017712 6.652865 -0.488931 51.575021 -10.243608 -10.478847 16.999267 0.000000 0.000000 0.000000 2.933920 -2.408520 10.511684 -5.605616 11.805688 -26.953865 -4.649898 7.764479 24.680072 13.817616 4.129824 17.208008 0.000000 0.000000 0.000000 2.129579 0.493047 -3.210088 9.424873 2.620156 -12.226514 -1.627499 -4.504015 9.442460 -0.023996 0.008035 0.011302 -1.538653 -3.144739 11.237195 -4.558674 -2.899612 24.219958 0.000000 0.000000 0.000000 0.594213 -2.953065 7.739587 -2.340607 -10.002709 3.159882 -49.691173 -5.813955 61.369707 -160.897865 -83.787037 -178.072348 0.000000 0.000000 0.000000 -4.528532 -0.952488 6.530250 31.472398 19.750639 5.268431 62.270015 15.013340 23.533072 -171.074546 59.997174 -173.692831 0.000000 0.000000 0.000000 
-0.821351 36.368073 -59.963367 -0.435760 -61.661322 0.295054 0.650772 -3.954462 11.670224 -5.504107 1.283132 -17.604068 6.762354 -0.408556 55.559293 -9.798511 -9.271172 17.608089 0.000000 0.000000 0.000000 3.082648 -2.220529 10.644309 -4.897592 11.082194 -24.668050 -4.672615 5.558671 24.498280 13.048189 3.478347 15.295992 0.000000 0.000000 0.000000 2.281681 0.717614 -3.179499 9.742142 2.392106 -12.252317 -1.632161 -4.682901 9.477700 -0.031064 -0.035363 0.001299 -1.588498 -3.163138 11.302920 -4.479754 -2.798130 24.101603 0.000000 0.000000 0.000000 0.569982 -3.025241 7.778347 -2.289792 -9.927003 3.127760 -49.126706 -6.390109 62.024914 -160.131736 -83.781136 -178.816019 0.000000 0.000000 0.000000 -4.598417 -0.984888 6.587247 32.074305 19.895781 5.349996 62.594804 14.688515 24.135559 -171.485382 59.755795 -174.142435 0.000000 0.000000 0.000000 
